<?xml version="1.0" encoding="utf-8"?>
<!-- Generator: Adobe Illustrator 27.0.0, SVG Export Plug-In . SVG Version: 6.00 Build 0)  -->
<svg version="1.1" id="Layer_1" xmlns="http://www.w3.org/2000/svg" xmlns:xlink="http://www.w3.org/1999/xlink" x="0px" y="0px"
	 viewBox="0 0 250 40" style="enable-background:new 0 0 250 40;" xml:space="preserve">
<style type="text/css">
	.st0{fill:#333333;}
	.st1{fill:#6699FF;}
	.st2{fill:#99BBFF;}
	.st3{fill:#3377FF;}
	.st4{fill:#FFFFFF;}
	.st5{display:none;}
	.st6{display:inline;fill:#3377FF;}
	.st7{display:inline;fill:#99BBFF;}
</style>
<g>
	<g>
		<path class="st0" d="M48.77,6.15h-9.52v24.13h5.1v-7.82h4.29c5.55,0,8.78-3.31,8.78-8.13C57.42,9.53,54.25,6.15,48.77,6.15z
			 M47.82,18.37h-3.46v-8.05h3.44c2.95,0,4.37,1.6,4.37,4.01C52.17,16.72,50.74,18.37,47.82,18.37z M61.24,4.77
			c-1.48,0-2.71,1.14-2.71,2.53c0,1.4,1.23,2.54,2.71,2.54c1.5,0,2.72-1.14,2.72-2.54C63.96,5.91,62.73,4.77,61.24,4.77z
			 M58.72,30.28h5.02v-18.1h-5.02V30.28z M74.27,26.48c-1,0-1.7-0.38-1.7-1.77v-8.76h3.4v-3.77h-3.4V7.85h-5.02v4.34h-2.47v3.77
			h2.47v9.42c-0.02,3.55,2.39,5.3,6.03,5.15c1.3-0.05,2.21-0.31,2.72-0.47l-0.79-3.73C75.27,26.36,74.74,26.48,74.27,26.48z
			 M87.85,19.77l-3.28-0.66c-1.68-0.37-2.31-0.94-2.3-1.81c-0.01-1.08,1.21-1.79,2.77-1.79c1.74,0,2.78,0.95,3.03,2.12l4.59-0.28
			c-0.45-3.33-3.13-5.4-7.7-5.4c-4.63,0-7.68,2.14-7.67,5.63c-0.01,2.71,1.7,4.46,5.23,5.17l3.13,0.62c1.58,0.32,2.3,0.9,2.32,1.8
			c-0.02,1.07-1.19,1.84-2.95,1.84c-1.79,0-2.98-0.77-3.29-2.24l-4.94,0.26c0.47,3.46,3.42,5.6,8.21,5.6c4.69,0,8.05-2.39,8.06-5.96
			C93.07,22.05,91.36,20.49,87.85,19.77z M104.73,11.94c-3.03,0-4.48,1.8-5.15,3.28h-0.15V6.15h-5.02v24.13h4.95v-2.9h0.22
			c0.69,1.51,2.21,3.19,5.14,3.19c4.12,0,7.34-3.26,7.34-9.32C112.06,15.03,108.7,11.94,104.73,11.94z M103.13,26.58
			c-2.41,0-3.81-2.12-3.81-5.35c0-3.23,1.37-5.29,3.81-5.29c2.49,0,3.81,2.16,3.81,5.29C106.93,24.39,105.59,26.58,103.13,26.58z
			 M124.69,12.18l-3.78,13.29h-0.19l-3.75-13.29h-5.28l6.49,18.61l-0.33,0.87c-0.71,1.65-1.92,1.76-3.69,1.21l-1.13,3.89
			c0.57,0.25,1.59,0.55,3.02,0.55c3.68,0,5.85-2.07,6.88-4.97L130,12.18H124.69z"/>
		<path class="st1" d="M0.01,15.8v7.43l8.31-8.31l-6.6-6.59C0.54,10.54-0.09,13.1,0.01,15.8z"/>
		<path class="st2" d="M1.73,8.32l6.6,6.59l8.31-8.31l-5.66-5.66C6.95,2.02,3.63,4.74,1.73,8.32z"/>
		<path class="st3" d="M14.29,0.44c-1.14,0.04-2.25,0.22-3.31,0.5l5.66,5.66l4.68-4.68C19.2,0.89,16.81,0.35,14.29,0.44z"/>
		
			<rect x="12.69" y="7.11" transform="matrix(0.707 -0.7072 0.7072 0.707 -3.7454 16.9344)" class="st1" width="11.76" height="11.76"/>
		<path class="st2" d="M8.32,31.54l-5.96,5.95c1.58,1.62,3.82,2.59,6.26,2.5c2.22-0.08,4.21-1.03,5.65-2.51L8.32,31.54z"/>
		<path class="st1" d="M21.77,28.35l-5.13-5.13l-8.31,8.31l5.95,5.95c1.53-1.57,2.45-3.74,2.36-6.11v-1.42
			C18.48,29.74,20.21,29.18,21.77,28.35z"/>
		<path class="st3" d="M29.14,19.1l-4.2-4.2l-6.39,6.39l-8.31-8.3L1.94,21.3l0,8.18c-0.01,0.19-0.01,0.39,0,0.58
			c0.08,2.15,0.97,4.08,2.36,5.5l5.96-5.95l6.39-6.39l5.12,5.12C25.36,26.44,28.07,23.09,29.14,19.1z"/>
		<path class="st2" d="M29.14,19.1c0.38-1.4,0.55-2.87,0.5-4.39c-0.05-1.33-0.28-2.62-0.65-3.84l1.93-1.93
			C29.7,5,26.88,1.77,23.24,0l-4.68,4.68l8.31,8.3l-1.93,1.92L29.14,19.1z"/>
	</g>
	<g>
		<polygon class="st3" points="245.61,18.21 133.24,18.21 137.63,6.15 250,6.15 		"/>
		<g>
			<path class="st4" d="M141.85,8.18h2.42l-0.7,4.91h0.06l3.08-4.91h1.9l-0.5,4.93h0.06l2.88-4.93h2.42l-5.26,7.98h-2.07l0.27-4.46
				h-0.06l-2.98,4.46h-2.07L141.85,8.18z"/>
			<path class="st4" d="M153.61,8.18h5.75l-0.64,1.75h-3.58l-0.5,1.37h3.29l-0.64,1.75h-3.29l-0.5,1.37h3.57l-0.64,1.75h-5.73
				L153.61,8.18z"/>
			<path class="st4" d="M159.88,8.18h3.46c1.82,0,2.51,0.78,2.06,2c-0.32,0.88-1.19,1.56-2.18,1.75L163.2,12
				c1.01,0.04,1.57,0.78,1.16,1.9c-0.48,1.31-1.89,2.26-3.63,2.26h-3.76L159.88,8.18z M160.78,14.44c0.73,0,1.19-0.28,1.39-0.81
				c0.2-0.56-0.08-0.87-0.74-0.87h-1.04l-0.61,1.68H160.78z M161.76,11.41c0.57,0,1.07-0.27,1.24-0.76
				c0.18-0.49-0.12-0.76-0.66-0.76h-0.92l-0.56,1.53H161.76z"/>
			<path class="st4" d="M172.44,11.18c0.2-0.73-0.09-1.22-0.93-1.22c-1.09,0-1.98,0.83-2.49,2.21c-0.53,1.47-0.19,2.21,0.86,2.21
				c0.8,0,1.43-0.42,1.79-1.11l2.19,0.02c-0.6,1.36-2.38,2.98-4.71,2.98c-2.2,0-3.32-1.45-2.36-4.1c0.97-2.66,3.19-4.1,5.34-4.1
				c2.01,0,3.05,1.12,2.5,3.1H172.44z"/>
			<path class="st4" d="M177.06,16.27c-2.18,0-3.35-1.45-2.39-4.1c0.97-2.66,3.19-4.1,5.37-4.1c2.17,0,3.36,1.43,2.39,4.1
				C181.46,14.84,179.22,16.27,177.06,16.27z M179.35,9.96c-1.08,0-1.94,0.78-2.46,2.21c-0.52,1.43-0.23,2.21,0.85,2.21
				c1.07,0,1.93-0.78,2.46-2.21C180.72,10.74,180.43,9.96,179.35,9.96z"/>
			<path class="st4" d="M187.02,8.18l0.21,4.52h0.09l3.5-4.52h2.7l-2.9,7.98h-2.12l1.68-4.61h-0.06l-3.43,4.55h-1.28l-0.11-4.58
				h-0.06l-1.69,4.64h-2.12l2.9-7.98H187.02z"/>
			<path class="st4" d="M193.98,8.18h3.44c1.77,0,2.55,1.12,1.93,2.82c-0.62,1.72-2.23,2.79-4.05,2.79h-1.2l-0.86,2.37h-2.17
				L193.98,8.18z M195.48,12.11c0.76,0,1.37-0.42,1.62-1.11c0.25-0.69-0.06-1.09-0.82-1.09h-0.76l-0.8,2.2H195.48z"/>
			<path class="st4" d="M201.53,16.27c-2.18,0-3.35-1.45-2.39-4.1c0.97-2.66,3.19-4.1,5.37-4.1c2.17,0,3.36,1.43,2.39,4.1
				C205.93,14.84,203.7,16.27,201.53,16.27z M203.83,9.96c-1.08,0-1.94,0.78-2.46,2.21c-0.52,1.43-0.23,2.21,0.85,2.21
				c1.07,0,1.93-0.78,2.46-2.21C205.2,10.74,204.9,9.96,203.83,9.96z"/>
			<path class="st4" d="M212.79,16.16h-1.81l-1.36-4.19h-0.05l-1.53,4.19h-2.17l2.9-7.98h1.84l1.32,4.18h0.06l1.52-4.18h2.17
				L212.79,16.16z"/>
			<path class="st4" d="M216.17,8.18h5.75l-0.64,1.75h-3.58l-0.5,1.37h3.29l-0.64,1.75h-3.29l-0.5,1.37h3.57L219,16.16h-5.73
				L216.17,8.18z"/>
			<path class="st4" d="M226.44,16.16h-1.81l-1.36-4.19h-0.05l-1.53,4.19h-2.17l2.9-7.98h1.84l1.32,4.18h0.06l1.52-4.18h2.17
				L226.44,16.16z"/>
			<path class="st4" d="M229.6,8.18h6.93l-0.63,1.75h-2.4l-2.27,6.23h-2.13l2.27-6.23h-2.4L229.6,8.18z"/>
			<path class="st4" d="M239.4,9.85c-0.67,0-1.06,0.26-1.19,0.61c-0.16,0.38,0.1,0.6,0.8,0.76l0.6,0.14
				c1.62,0.38,2.04,1.23,1.6,2.45c-0.58,1.57-2.11,2.45-4.13,2.45c-2.08,0-3.11-0.9-2.39-2.9h2.06c-0.23,0.73,0.12,1.12,0.95,1.12
				c0.69,0,1.15-0.28,1.3-0.67c0.12-0.36-0.1-0.59-0.92-0.78l-0.73-0.17c-1.3-0.3-1.92-1-1.46-2.24c0.54-1.52,2.25-2.54,4.15-2.54
				c1.93,0,2.76,1.04,2.2,2.6h-2.07C240.32,10.16,240.1,9.85,239.4,9.85z"/>
		</g>
		<polygon class="st2" points="242.86,30.28 166.82,30.28 171.21,18.21 247.25,18.21 		"/>
		<g>
			<path class="st0" d="M176.37,20.42h5.75l-0.64,1.75h-3.58l-0.5,1.37h3.29l-0.64,1.75h-3.29l-0.5,1.37h3.57l-0.64,1.75h-5.73
				L176.37,20.42z"/>
			<path class="st0" d="M185.26,22.09c-0.67,0-1.06,0.26-1.19,0.61c-0.16,0.38,0.1,0.6,0.8,0.76l0.6,0.14
				c1.62,0.38,2.04,1.23,1.6,2.45c-0.58,1.57-2.11,2.45-4.13,2.45c-2.08,0-3.11-0.9-2.39-2.9h2.06c-0.23,0.73,0.12,1.12,0.95,1.12
				c0.69,0,1.15-0.28,1.3-0.67c0.12-0.36-0.1-0.59-0.92-0.78l-0.73-0.17c-1.3-0.3-1.92-1-1.46-2.24c0.54-1.52,2.25-2.54,4.15-2.54
				c1.93,0,2.76,1.04,2.2,2.6h-2.07C186.18,22.4,185.96,22.09,185.26,22.09z"/>
			<path class="st0" d="M193.72,20.42l0.21,4.52h0.09l3.5-4.52h2.7l-2.9,7.98h-2.12l1.68-4.61h-0.06l-3.43,4.55h-1.28l-0.11-4.58
				h-0.06l-1.69,4.64h-2.12l2.9-7.98H193.72z"/>
			<path class="st0" d="M201.59,28.51c-2.18,0-3.35-1.45-2.39-4.1c0.97-2.66,3.19-4.1,5.37-4.1c2.17,0,3.36,1.43,2.39,4.1
				C206,27.07,203.76,28.51,201.59,28.51z M203.89,22.2c-1.07,0-1.93,0.78-2.46,2.21c-0.52,1.43-0.23,2.21,0.85,2.21
				c1.08,0,1.94-0.78,2.46-2.21C205.26,22.98,204.97,22.2,203.89,22.2z"/>
			<path class="st0" d="M205.95,28.4l2.9-7.98h3.04c2.46,0,3.46,1.5,2.55,3.99c-0.91,2.49-3,3.99-5.43,3.99H205.95z M209.62,26.56
				c1.18,0,2.05-0.48,2.65-2.15c0.61-1.67,0.1-2.15-1.15-2.15h-0.76l-1.57,4.3H209.62z"/>
			<path class="st0" d="M223.23,20.42l-1.86,5.11c-0.66,1.82-2.47,2.96-4.52,2.96c-2.07,0-3.03-1.14-2.37-2.96l1.86-5.11h2.17
				l-1.79,4.93c-0.27,0.74,0.07,1.28,0.81,1.28s1.47-0.53,1.74-1.28l1.79-4.93H223.23z"/>
			<path class="st0" d="M223.7,20.42h2.17l-2.27,6.23h3.23l-0.64,1.75h-5.39L223.7,20.42z"/>
			<path class="st0" d="M229.41,20.42h5.75l-0.64,1.75h-3.58l-0.5,1.37h3.29l-0.64,1.75h-3.29l-0.5,1.37h3.57l-0.64,1.75h-5.73
				L229.41,20.42z"/>
			<path class="st0" d="M238.3,22.09c-0.67,0-1.06,0.26-1.19,0.61c-0.16,0.38,0.1,0.6,0.8,0.76l0.6,0.14
				c1.62,0.38,2.04,1.23,1.6,2.45c-0.58,1.57-2.11,2.45-4.13,2.45c-2.08,0-3.11-0.9-2.39-2.9h2.06c-0.23,0.73,0.12,1.12,0.95,1.12
				c0.69,0,1.15-0.28,1.3-0.67c0.12-0.36-0.1-0.59-0.92-0.78l-0.73-0.17c-1.3-0.3-1.92-1-1.46-2.24c0.54-1.52,2.25-2.54,4.15-2.54
				c1.93,0,2.76,1.04,2.2,2.6h-2.07C239.22,22.4,239,22.09,238.3,22.09z"/>
		</g>
		<g>
			<path class="st0" d="M160.87,25.28h-2.01l0.64-1.75h2.01l0.73-2.01h1.75l-0.73,2.01h2.01l-0.64,1.75h-2.01l-0.73,2.01h-1.75
				L160.87,25.28z"/>
		</g>
	</g>
</g>
<g class="st5">
	<polygon class="st6" points="162.52,-16.08 59.98,-16.08 63.98,-27.09 166.53,-27.09 	"/>
	
		<text transform="matrix(0.9397 0 -0.342 0.9397 65.0083 -17.9525)" style="display:inline;fill:#FFFFFF; font-family:'Inter-Black'; font-size:10.6418px;">WEB COMPONENTS</text>
	<polygon class="st7" points="160.01,-5.08 90.62,-5.08 94.63,-16.08 164.02,-16.08 	"/>
	
		<text transform="matrix(0.9397 0 -0.342 0.9397 96.218 -6.7876)" style="display:inline;fill:#333333; font-family:'Inter-Black'; font-size:10.6418px;">ES MODULES</text>
	
		<text transform="matrix(0.9397 0 -0.342 0.9397 81.726 -7.4694)" style="display:inline;fill:#333333; font-family:'Inter-Black'; font-size:10.6418px;">+</text>
</g>
</svg>
